<svg width="1000" version="1.1" id="Layer_2" xmlns="http://www.w3.org/2000/svg" x="0px" y="0px"
        viewBox="0 0 749.8 265.4" enable-background="new 0 0 749.8 265.4">
        <g>
          <g>
            <rect x="611" y="29" fill="none" stroke="#E6E6E6" stroke-miterlimit="10" width="7" height="15" />
            <rect x="620" y="29" fill="none" stroke="#E6E6E6" stroke-miterlimit="10" width="7" height="15" />
            <rect x="611" y="46" fill="none" stroke="#E6E6E6" stroke-miterlimit="10" width="7" height="15" />
            <rect x="620" y="46" fill="none" stroke="#E6E6E6" stroke-miterlimit="10" width="7" height="15" />
            <rect x="611" y="63" fill="none" stroke="#E6E6E6" stroke-miterlimit="10" width="7" height="15" />
            <rect x="620" y="63" fill="none" stroke="#E6E6E6" stroke-miterlimit="10" width="7" height="15" />
          </g>
          <g>
            <rect x="711" y="195" fill="none" stroke="#E6E6E6" stroke-miterlimit="10" width="7" height="15" />
            <rect x="720" y="195" fill="none" stroke="#E6E6E6" stroke-miterlimit="10" width="7" height="15" />
            <rect x="711" y="212" fill="none" stroke="#E6E6E6" stroke-miterlimit="10" width="7" height="15" />
            <rect x="720" y="212" fill="none" stroke="#E6E6E6" stroke-miterlimit="10" width="7" height="15" />
            <rect x="711" y="229" fill="none" stroke="#E6E6E6" stroke-miterlimit="10" width="7" height="15" />
            <rect x="720" y="229" fill="none" stroke="#E6E6E6" stroke-miterlimit="10" width="7" height="15" />
          </g>
          <g>
            <rect x="673" y="195" fill="none" stroke="#E6E6E6" stroke-miterlimit="10" width="7" height="15" />
            <rect x="682" y="195" fill="none" stroke="#E6E6E6" stroke-miterlimit="10" width="7" height="15" />
            <rect x="673" y="212" fill="none" stroke="#E6E6E6" stroke-miterlimit="10" width="7" height="15" />
            <rect x="682" y="212" fill="none" stroke="#E6E6E6" stroke-miterlimit="10" width="7" height="15" />
            <rect x="673" y="229" fill="none" stroke="#E6E6E6" stroke-miterlimit="10" width="7" height="15" />
            <rect x="682" y="229" fill="none" stroke="#E6E6E6" stroke-miterlimit="10" width="7" height="15" />
          </g>
          <g>
            <rect x="509" y="211" fill="none" stroke="#E6E6E6" stroke-miterlimit="10" width="7" height="15" />
            <rect x="518" y="211" fill="none" stroke="#E6E6E6" stroke-miterlimit="10" width="7" height="15" />
            <rect x="509" y="228" fill="none" stroke="#E6E6E6" stroke-miterlimit="10" width="7" height="15" />
            <rect x="518" y="228" fill="none" stroke="#E6E6E6" stroke-miterlimit="10" width="7" height="15" />
          </g>
          <g>
            <rect x="466" y="210" fill="none" stroke="#E6E6E6" stroke-miterlimit="10" width="7" height="15" />
            <rect x="475" y="210" fill="none" stroke="#E6E6E6" stroke-miterlimit="10" width="7" height="15" />
            <rect x="466" y="227" fill="none" stroke="#E6E6E6" stroke-miterlimit="10" width="7" height="15" />
            <rect x="475" y="227" fill="none" stroke="#E6E6E6" stroke-miterlimit="10" width="7" height="15" />
          </g>
          <g>
            <rect x="406" y="212" fill="none" stroke="#E6E6E6" stroke-miterlimit="10" width="7" height="15" />
            <rect x="415" y="212" fill="none" stroke="#E6E6E6" stroke-miterlimit="10" width="7" height="15" />
            <rect x="406" y="229" fill="none" stroke="#E6E6E6" stroke-miterlimit="10" width="7" height="15" />
            <rect x="415" y="229" fill="none" stroke="#E6E6E6" stroke-miterlimit="10" width="7" height="15" />
          </g>
          <g>
            <rect x="363" y="213" fill="none" stroke="#E6E6E6" stroke-miterlimit="10" width="7" height="15" />
            <rect x="372" y="213" fill="none" stroke="#E6E6E6" stroke-miterlimit="10" width="7" height="15" />
            <rect x="363" y="230" fill="none" stroke="#E6E6E6" stroke-miterlimit="10" width="7" height="15" />
            <rect x="372" y="230" fill="none" stroke="#E6E6E6" stroke-miterlimit="10" width="7" height="15" />
          </g>
          <g>
            <rect x="405" y="34" fill="none" stroke="#E6E6E6" stroke-miterlimit="10" width="7" height="15" />
            <rect x="414" y="34" fill="none" stroke="#E6E6E6" stroke-miterlimit="10" width="7" height="15" />
            <rect x="405" y="51" fill="none" stroke="#E6E6E6" stroke-miterlimit="10" width="7" height="15" />
            <rect x="414" y="51" fill="none" stroke="#E6E6E6" stroke-miterlimit="10" width="7" height="15" />
          </g>
          <g>
            <rect x="364" y="33" fill="none" stroke="#E6E6E6" stroke-miterlimit="10" width="7" height="15" />
            <rect x="373" y="33" fill="none" stroke="#E6E6E6" stroke-miterlimit="10" width="7" height="15" />
            <rect x="364" y="50" fill="none" stroke="#E6E6E6" stroke-miterlimit="10" width="7" height="15" />
            <rect x="373" y="50" fill="none" stroke="#E6E6E6" stroke-miterlimit="10" width="7" height="15" />
          </g>
          <g>
            <rect x="508" y="104" fill="none" stroke="#E6E6E6" stroke-miterlimit="10" width="7" height="15" />
            <rect x="517" y="104" fill="none" stroke="#E6E6E6" stroke-miterlimit="10" width="7" height="15" />
          </g>
          <g>
            <rect x="465" y="104" fill="none" stroke="#E6E6E6" stroke-miterlimit="10" width="7" height="15" />
            <rect x="474" y="104" fill="none" stroke="#E6E6E6" stroke-miterlimit="10" width="7" height="15" />
          </g>
          <g>
            <rect x="612" y="195" fill="none" stroke="#E6E6E6" stroke-miterlimit="10" width="7" height="15" />
            <rect x="621" y="195" fill="none" stroke="#E6E6E6" stroke-miterlimit="10" width="7" height="15" />
            <rect x="612" y="212" fill="none" stroke="#E6E6E6" stroke-miterlimit="10" width="7" height="15" />
            <rect x="621" y="212" fill="none" stroke="#E6E6E6" stroke-miterlimit="10" width="7" height="15" />
            <rect x="612" y="229" fill="none" stroke="#E6E6E6" stroke-miterlimit="10" width="7" height="15" />
            <rect x="621" y="229" fill="none" stroke="#E6E6E6" stroke-miterlimit="10" width="7" height="15" />
          </g>
          <g>
            <rect x="569" y="195" fill="none" stroke="#E6E6E6" stroke-miterlimit="10" width="7" height="15" />
            <rect x="578" y="195" fill="none" stroke="#E6E6E6" stroke-miterlimit="10" width="7" height="15" />
            <rect x="569" y="212" fill="none" stroke="#E6E6E6" stroke-miterlimit="10" width="7" height="15" />
            <rect x="578" y="212" fill="none" stroke="#E6E6E6" stroke-miterlimit="10" width="7" height="15" />
            <rect x="569" y="229" fill="none" stroke="#E6E6E6" stroke-miterlimit="10" width="7" height="15" />
            <rect x="578" y="229" fill="none" stroke="#E6E6E6" stroke-miterlimit="10" width="7" height="15" />
          </g>
          <g>
            <rect x="303" y="195" fill="none" stroke="#E6E6E6" stroke-miterlimit="10" width="7" height="15" />
            <rect x="312" y="195" fill="none" stroke="#E6E6E6" stroke-miterlimit="10" width="7" height="15" />
            <rect x="303" y="212" fill="none" stroke="#E6E6E6" stroke-miterlimit="10" width="7" height="15" />
            <rect x="312" y="212" fill="none" stroke="#E6E6E6" stroke-miterlimit="10" width="7" height="15" />
            <rect x="303" y="229" fill="none" stroke="#E6E6E6" stroke-miterlimit="10" width="7" height="15" />
            <rect x="312" y="229" fill="none" stroke="#E6E6E6" stroke-miterlimit="10" width="7" height="15" />
          </g>
          <g>
            <rect x="260" y="195" fill="none" stroke="#E6E6E6" stroke-miterlimit="10" width="7" height="15" />
            <rect x="269" y="195" fill="none" stroke="#E6E6E6" stroke-miterlimit="10" width="7" height="15" />
            <rect x="260" y="212" fill="none" stroke="#E6E6E6" stroke-miterlimit="10" width="7" height="15" />
            <rect x="269" y="212" fill="none" stroke="#E6E6E6" stroke-miterlimit="10" width="7" height="15" />
            <rect x="260" y="229" fill="none" stroke="#E6E6E6" stroke-miterlimit="10" width="7" height="15" />
            <rect x="269" y="229" fill="none" stroke="#E6E6E6" stroke-miterlimit="10" width="7" height="15" />
          </g>
          <g>
            <rect x="200" y="195" fill="none" stroke="#E6E6E6" stroke-miterlimit="10" width="7" height="15" />
            <rect x="209" y="195" fill="none" stroke="#E6E6E6" stroke-miterlimit="10" width="7" height="15" />
            <rect x="200" y="212" fill="none" stroke="#E6E6E6" stroke-miterlimit="10" width="7" height="15" />
            <rect x="209" y="212" fill="none" stroke="#E6E6E6" stroke-miterlimit="10" width="7" height="15" />
            <rect x="200" y="229" fill="none" stroke="#E6E6E6" stroke-miterlimit="10" width="7" height="15" />
            <rect x="209" y="229" fill="none" stroke="#E6E6E6" stroke-miterlimit="10" width="7" height="15" />
          </g>
          <g>
            <rect x="157" y="195" fill="none" stroke="#E6E6E6" stroke-miterlimit="10" width="7" height="15" />
            <rect x="166" y="195" fill="none" stroke="#E6E6E6" stroke-miterlimit="10" width="7" height="15" />
            <rect x="157" y="212" fill="none" stroke="#E6E6E6" stroke-miterlimit="10" width="7" height="15" />
            <rect x="166" y="212" fill="none" stroke="#E6E6E6" stroke-miterlimit="10" width="7" height="15" />
            <rect x="157" y="229" fill="none" stroke="#E6E6E6" stroke-miterlimit="10" width="7" height="15" />
            <rect x="166" y="229" fill="none" stroke="#E6E6E6" stroke-miterlimit="10" width="7" height="15" />
          </g>
          <g>
            <rect x="97" y="195" fill="none" stroke="#E6E6E6" stroke-miterlimit="10" width="7" height="15" />
            <rect x="106" y="195" fill="none" stroke="#E6E6E6" stroke-miterlimit="10" width="7" height="15" />
            <rect x="97" y="212" fill="none" stroke="#E6E6E6" stroke-miterlimit="10" width="7" height="15" />
            <rect x="106" y="212" fill="none" stroke="#E6E6E6" stroke-miterlimit="10" width="7" height="15" />
            <rect x="97" y="229" fill="none" stroke="#E6E6E6" stroke-miterlimit="10" width="7" height="15" />
            <rect x="106" y="229" fill="none" stroke="#E6E6E6" stroke-miterlimit="10" width="7" height="15" />
          </g>
          <g>
            <rect x="54" y="195" fill="none" stroke="#E6E6E6" stroke-miterlimit="10" width="7" height="15" />
            <rect x="63" y="195" fill="none" stroke="#E6E6E6" stroke-miterlimit="10" width="7" height="15" />
            <rect x="54" y="212" fill="none" stroke="#E6E6E6" stroke-miterlimit="10" width="7" height="15" />
            <rect x="63" y="212" fill="none" stroke="#E6E6E6" stroke-miterlimit="10" width="7" height="15" />
            <rect x="54" y="229" fill="none" stroke="#E6E6E6" stroke-miterlimit="10" width="7" height="15" />
            <rect x="63" y="229" fill="none" stroke="#E6E6E6" stroke-miterlimit="10" width="7" height="15" />
          </g>
          <g>
            <rect x="55" y="82" fill="none" stroke="#E6E6E6" stroke-miterlimit="10" width="7" height="15" />
            <rect x="64" y="82" fill="none" stroke="#E6E6E6" stroke-miterlimit="10" width="7" height="15" />
            <rect x="55" y="99" fill="none" stroke="#E6E6E6" stroke-miterlimit="10" width="7" height="15" />
            <rect x="64" y="99" fill="none" stroke="#E6E6E6" stroke-miterlimit="10" width="7" height="15" />
            <rect x="55" y="116" fill="none" stroke="#E6E6E6" stroke-miterlimit="10" width="7" height="15" />
            <rect x="64" y="116" fill="none" stroke="#E6E6E6" stroke-miterlimit="10" width="7" height="15" />
          </g>
          <g>
            <rect x="93" y="82" fill="none" stroke="#E6E6E6" stroke-miterlimit="10" width="7" height="15" />
            <rect x="102" y="82" fill="none" stroke="#E6E6E6" stroke-miterlimit="10" width="7" height="15" />
            <rect x="93" y="99" fill="none" stroke="#E6E6E6" stroke-miterlimit="10" width="7" height="15" />
            <rect x="102" y="99" fill="none" stroke="#E6E6E6" stroke-miterlimit="10" width="7" height="15" />
            <rect x="93" y="116" fill="none" stroke="#E6E6E6" stroke-miterlimit="10" width="7" height="15" />
            <rect x="102" y="116" fill="none" stroke="#E6E6E6" stroke-miterlimit="10" width="7" height="15" />
          </g>
          <g>
            <rect x="261" y="34" fill="none" stroke="#E6E6E6" stroke-miterlimit="10" width="7" height="15" />
            <rect x="270" y="34" fill="none" stroke="#E6E6E6" stroke-miterlimit="10" width="7" height="15" />
            <rect x="261" y="51" fill="none" stroke="#E6E6E6" stroke-miterlimit="10" width="7" height="15" />
            <rect x="270" y="51" fill="none" stroke="#E6E6E6" stroke-miterlimit="10" width="7" height="15" />
            <rect x="261" y="68" fill="none" stroke="#E6E6E6" stroke-miterlimit="10" width="7" height="15" />
            <rect x="270" y="68" fill="none" stroke="#E6E6E6" stroke-miterlimit="10" width="7" height="15" />
          </g>
          <g>
            <rect x="302" y="34" fill="none" stroke="#E6E6E6" stroke-miterlimit="10" width="7" height="15" />
            <rect x="311" y="34" fill="none" stroke="#E6E6E6" stroke-miterlimit="10" width="7" height="15" />
            <rect x="302" y="51" fill="none" stroke="#E6E6E6" stroke-miterlimit="10" width="7" height="15" />
            <rect x="311" y="51" fill="none" stroke="#E6E6E6" stroke-miterlimit="10" width="7" height="15" />
            <rect x="302" y="68" fill="none" stroke="#E6E6E6" stroke-miterlimit="10" width="7" height="15" />
            <rect x="311" y="68" fill="none" stroke="#E6E6E6" stroke-miterlimit="10" width="7" height="15" />
          </g>
          <g>
            <rect x="570" y="29" fill="none" stroke="#E6E6E6" stroke-miterlimit="10" width="7" height="15" />
            <rect x="579" y="29" fill="none" stroke="#E6E6E6" stroke-miterlimit="10" width="7" height="15" />
            <rect x="570" y="46" fill="none" stroke="#E6E6E6" stroke-miterlimit="10" width="7" height="15" />
            <rect x="579" y="46" fill="none" stroke="#E6E6E6" stroke-miterlimit="10" width="7" height="15" />
            <rect x="570" y="63" fill="none" stroke="#E6E6E6" stroke-miterlimit="10" width="7" height="15" />
            <rect x="579" y="63" fill="none" stroke="#E6E6E6" stroke-miterlimit="10" width="7" height="15" />
          </g>
          <g>
            <rect x="508" y="26" fill="none" stroke="#E6E6E6" stroke-miterlimit="10" width="7" height="15" />
            <rect x="517" y="26" fill="none" stroke="#E6E6E6" stroke-miterlimit="10" width="7" height="15" />
            <rect x="508" y="43" fill="none" stroke="#E6E6E6" stroke-miterlimit="10" width="7" height="15" />
            <rect x="517" y="43" fill="none" stroke="#E6E6E6" stroke-miterlimit="10" width="7" height="15" />
            <rect x="508" y="60" fill="none" stroke="#E6E6E6" stroke-miterlimit="10" width="7" height="15" />
            <rect x="517" y="60" fill="none" stroke="#E6E6E6" stroke-miterlimit="10" width="7" height="15" />
          </g>
          <g>
            <rect x="467" y="26" fill="none" stroke="#E6E6E6" stroke-miterlimit="10" width="7" height="15" />
            <rect x="476" y="26" fill="none" stroke="#E6E6E6" stroke-miterlimit="10" width="7" height="15" />
            <rect x="467" y="43" fill="none" stroke="#E6E6E6" stroke-miterlimit="10" width="7" height="15" />
            <rect x="476" y="43" fill="none" stroke="#E6E6E6" stroke-miterlimit="10" width="7" height="15" />
            <rect x="467" y="60" fill="none" stroke="#E6E6E6" stroke-miterlimit="10" width="7" height="15" />
            <rect x="476" y="60" fill="none" stroke="#E6E6E6" stroke-miterlimit="10" width="7" height="15" />
          </g>
          <polyline fill="none" stroke="#E6E6E6" stroke-miterlimit="10" points="548.5,196.5 556.5,196.5 556.5,223.5 538.5,223.5
            538.5,197   "/>
          <polyline fill="none" stroke="#E6E6E6" stroke-miterlimit="10" points="453.5,203 453.5,223.5 435.5,223.5 435.5,202.5
            443.5,202.5       "/>
          <polyline fill="none" stroke="#E6E6E6" stroke-miterlimit="10" points="546.5,70.5 538.5,70.5 538.5,39.5 556.5,39.5 556.5,70.1  
            "/>
          <polyline fill="none" stroke="#E6E6E6" stroke-miterlimit="10" points="435.5,70.1 435.5,39.5 453.5,39.5 453.5,70.5 445.5,70.5  
            "/>
          <polyline fill="none" stroke="#E6E6E6" stroke-miterlimit="10" points="144.5,192 144.5,222.5 126.5,222.5 126.5,191.5
            134.5,191.5       "/>
          <polyline fill="none" stroke="#E6E6E6" stroke-miterlimit="10" points="350.5,192 350.5,222.5 332.5,222.5 332.5,191.5
            340.5,191.5       "/>
          <polyline fill="none" stroke="#E6E6E6" stroke-miterlimit="10" points="332.5,70.1 332.5,39.5 350.5,39.5 350.5,70.5 342.5,70.5  
            "/>
          <polyline fill="none" stroke="#E6E6E6" stroke-miterlimit="10" points="659.5,192 659.5,223.5 641.5,223.5 641.5,191.5
            649.5,191.5       "/>
          <polyline fill="none" stroke="#E6E6E6" stroke-miterlimit="10" points="247.5,192 247.5,223.5 229.5,223.5 229.5,191.5
            237.5,191.5       "/>

          <rect x="385.5" y="60.5" transform="matrix(-1.836970e-16 1 -1 -1.836970e-16 468.0453 -309.4697)" fill="none" stroke="#E6E6E6" stroke-miterlimit="10" width="6.5" height="37.5" />

          <rect x="492.5" y="181.5" transform="matrix(-1.836970e-16 1 -1 -1.836970e-16 696.0453 -295.4697)" fill="none" stroke="#E6E6E6" stroke-miterlimit="10" width="6.5" height="37.5" />

          <rect x="697.5" y="164.5" transform="matrix(-1.836970e-16 1 -1 -1.836970e-16 884.0453 -517.4697)" fill="none" stroke="#E6E6E6" stroke-miterlimit="10" width="6.5" height="37.5" />

          <rect x="385.5" y="181.5" transform="matrix(-1.836970e-16 1 -1 -1.836970e-16 589.0453 -188.4697)" fill="none" stroke="#E6E6E6" stroke-miterlimit="10" width="6.5" height="37.5" />

          <rect x="287.3" y="157.3" transform="matrix(-1.836970e-16 1 -1 -1.836970e-16 467.7953 -111.7197)" fill="none" stroke="#E6E6E6" stroke-miterlimit="10" width="5" height="41.5" />
        </g>
        <g>
          <rect x="27.5" y="91.5" fill="#F68B61" width="91.5" height="18" />
          <text transform="matrix(1 0 0 1 42.8933 104.3513)" fill="#F2F2F2" font-family="'MyriadPro-Regular'" font-size="15px">Leidsplein</text>
          <rect x="45" y="127.5" fill="#3963AF" width="109" height="18" />
          <rect x="192" y="135" fill="#3963AF" width="109" height="18" />
          <text transform="matrix(1 0 0 1 200.8932 148.8513)" fill="#F2F2F2" font-family="'MyriadPro-Regular'" font-size="15px">Surinameplein</text>
          <rect x="236" y="70" fill="#833576" width="102" height="18" />
          <rect x="300" y="38" fill="#F68B61" width="93" height="18" />
          <text transform="matrix(1 0 0 1 308.8932 51.8513)" fill="#F2F2F2" font-family="'MyriadPro-Regular'" font-size="15px">Europaplein</text>
          <rect x="432" y="163" fill="#3963AF" width="124" height="18" />
          <text transform="matrix(1 0 0 1 442.8932 176.8513)" fill="#F2F2F2" font-family="'MyriadPro-Regular'" font-size="15px">Rembrandtplein</text>
          <rect x="571" y="100" fill="#F68B61" width="112" height="18" />
          <text transform="matrix(1 0 0 1 578.8932 113.8513)" fill="#F2F2F2" font-family="'MyriadPro-Regular'" font-size="15px">Alexanderplein</text>
          <rect x="400" y="73" fill="#833576" width="89" height="18" />
          <text transform="matrix(1 0 0 1 410.8932 86.8513)" fill="#F2F2F2" font-family="'MyriadPro-Regular'" font-size="15px">Raamplein</text>
          <rect x="294" y="181" fill="#F68B61" width="106" height="18" />
          <text transform="matrix(1 0 0 1 303.8932 194.8513)" fill="#F2F2F2" font-family="'MyriadPro-Regular'" font-size="15px">Mercatorplein</text>
          <rect x="70" y="186" fill="#833576" width="84" height="18" />
          <text transform="matrix(1 0 0 1 79.8932 199.8513)" fill="#F2F2F2" font-family="'MyriadPro-Regular'" font-size="15px">Muntplein</text>
          <polyline fill="none" stroke="#000000" stroke-miterlimit="10" points="466.5,154.5 536.5,154.5 536.5,120.5 455.5,120.5
            455.5,154.5 455.8,154.5       "/>
          <polyline fill="none" stroke="#000000" stroke-miterlimit="10" points="447.2,98.5 434,98.5 434,121 454.5,121 454.5,98.5
            454.3,98.5  "/>
          <polyline fill="none" stroke="#000000" stroke-miterlimit="10" points="536.2,98.5 536,98.5 536,121 556.5,121 556.5,98.5
            543.3,98.5  "/>
          <polyline fill="none" stroke="#000000" stroke-miterlimit="10" points="345,93.5 332,93.5 332,121 360,121 360,93.5 359.8,93.5   
            "/>
          <polyline fill="none" stroke="#000000" stroke-miterlimit="10" points="359.8,169 360,169 360,141.5 332,141.5 332,169 345,169   
            "/>
          <polyline fill="none" stroke="#000000" stroke-miterlimit="10" points="124.7,81 124.5,90.9 124.5,121 161.1,121 161.1,90.9      " />
          <line fill="none" stroke="#3963AF" stroke-width="2" stroke-miterlimit="10" x1="495.5" y1="164.5" x2="495.5" y2="139.5" />
          <line fill="none" stroke="#F68B61" stroke-width="2" stroke-miterlimit="10" x1="549" y1="110" x2="574" y2="110" />
          <line fill="none" stroke="#833576" stroke-width="2" stroke-miterlimit="10" x1="444.5" y1="113" x2="444.5" y2="88" />
          <line fill="none" stroke="#F68B61" stroke-width="2" stroke-miterlimit="10" x1="346.5" y1="104" x2="346.5" y2="55" />
          <line fill="none" stroke="#833576" stroke-width="2" stroke-miterlimit="10" x1="287.5" y1="111" x2="287.5" y2="82" />
          <line fill="none" stroke="#833576" stroke-width="2" stroke-miterlimit="10" x1="85" y1="191" x2="85" y2="162" />
          <line fill="none" stroke="#3963AF" stroke-width="2" stroke-miterlimit="10" x1="246.5" y1="138" x2="246.5" y2="109" />
          <line fill="none" stroke="#3963AF" stroke-width="2" stroke-miterlimit="10" x1="58" y1="162" x2="58" y2="133" />
          <line fill="none" stroke="#F68B61" stroke-width="2" stroke-miterlimit="10" x1="346.5" y1="185" x2="346.5" y2="156" />
          <line fill="none" stroke="#F68B61" stroke-width="2" stroke-miterlimit="10" x1="116" y1="101" x2="145" y2="101" />
          <polyline fill="none" stroke="#000000" stroke-miterlimit="10" points="307.5,109.5 307.5,121.5 227.5,121.5 227.5,100.5   " />
          <polyline fill="none" stroke="#000000" stroke-miterlimit="10" points="237.5,100.5 307.5,100.5 307.5,102.5   " />
          <text transform="matrix(1 0 0 1 243.8932 83.8513)" fill="#F2F2F2" font-family="'MyriadPro-Regular'" font-size="15px">Victorieplein</text>
          <line fill="none" stroke="#000000" stroke-miterlimit="10" x1="267.5" y1="100.5" x2="267.5" y2="121.5" />
          <polyline fill="none" stroke="#000000" stroke-miterlimit="10" points="101.5,162.9 101.5,178 47,178 47,164.2       " />
          <line fill="none" stroke="#000000" stroke-miterlimit="10" x1="47" y1="151.5" x2="101.5" y2="151.5" />
          <line fill="none" stroke="#000000" stroke-miterlimit="10" x1="70.3" y1="151.5" x2="70.3" y2="178" />
          <text transform="matrix(1 0 0 1 55.8933 141.3513)" fill="#F2F2F2" font-family="'MyriadPro-Regular'" font-size="15px">Noordermarkt</text>
        </g>
      </svg>